<svg xmlns="http://www.w3.org/2000/svg" version="1" viewBox="0 0 425 425">
  <path d="M137.5 1.9c-.6.5-5.7 1.4-11.4 2-57 6.1-85.7 28.6-95 74.7C28.4 92 27 115.5 28 131c2.1 30.4 10.9 52.6 27.7 69.5 6.8 6.8 6.8 3.9.4 21.5-1.7 4.7-3.1 8.6-3.1 8.7 0 .1 15.9.3 35.4.5s35.7.6 36 .9c.3.3-.3 4.6-1.4 9.5-1.1 4.9-3.1 14.1-4.4 20.4-1.4 6.3-3.7 16.9-5.1 23.5-1.4 6.6-3 14.5-3.6 17.5-.6 3-1.4 6.1-1.9 6.9-1.2 2.2-6.9-10.5-7.6-16.9-.3-3-.7-6.5-1-7.8L99 283H63.5c-19.4 0-35.6.3-35.8.7-1 1.7 1.4 30.1 3.4 39.7 2.1 10.6 7.5 25.3 11.7 32.1 9.9 16.1 21.2 25 43.3 34.3l4.7 2-2.4 10.8c-3.3 15-3.8 18.4-2.8 18.4.5 0 4.2-5.7 8.3-12.6 4.1-6.9 8-12.8 8.8-13.1.7-.3 4.3 0 8 .7 18.3 3.2 34.1 4.1 85.3 4.7 94.7 1 125.3-2.3 153.9-16.5 15.2-7.5 28-20.9 35.1-36.6 6.7-14.8 9.9-31.4 10.7-55.2 1.4-42.9-7.8-71.9-29.3-92.5-11.5-11-22.7-17.4-40.7-23.4-25.3-8.4-45.3-10.4-112.7-11.5-28.9-.5-52.6-.9-52.7-.9-.1-.1 7.6-15.7 17.1-34.9 9.5-19.1 19.7-39.5 22.5-45.5l5.3-10.7h23.1c57 0 78.7 5 89 20.3 4.1 6.1 5.6 10.3 6.5 18.9l.7 6.3 35.9.3 35.9.2-.6-13.2c-1-20.7-4.5-37.8-10.7-51.4-7.1-15.7-19.9-29.1-35.1-36.6C330.1 7.9 311.6 4.1 273.5 2 250.8.8 138.7.7 137.5 1.9zM227 9.6c0 .3-16.4 33.6-36.5 74s-36.7 75.2-37 77.2c-.8 5.2 2.2 9.8 7.2 11.1 2.1.5 18.2 1 35.8 1.1 17.5 0 32.1.3 32.3.5.4.4-6.8 12.2-41.8 68.5-13.6 21.7-30 48.3-36.7 59-6.6 10.7-20 32.5-29.8 48.3-9.7 15.8-17.9 28.6-18.1 28.5-.1-.2 1.4-8.2 3.6-17.8 2.1-9.6 4.8-22.2 6-28 1.2-5.8 2.6-12.1 3-14 .4-1.9 2.4-11.2 4.4-20.5 2-9.4 4.1-18.8 4.6-21 .5-2.2 1.6-7.4 2.5-11.5.9-4.1 2-9.3 2.5-11.5 3.3-14 3.9-18.8 2.7-22.3-.7-1.9-2.5-4.5-4-5.6-2.7-2-4.2-2.1-32.9-2.4-27.8-.3-29.9-.4-29.3-2 .4-.9 1.8-4.9 3.1-8.7 1.3-3.9 5.1-14.4 8.4-23.5 3.4-9.1 8.6-23 11.5-31 2.9-8 9.2-25.1 14-38 4.8-12.9 9.7-26.4 11-30 1.3-3.6 5.1-13.9 8.5-23 11-29.6 16.1-43.4 18.7-50.8l2.5-7.2h41.9c23 0 41.9.3 41.9.6zM263.4 238c34.5 2.4 51.3 10.2 57.7 26.9 3 7.8 3.7 23.3 1.5 32.1-5.1 19.9-20.7 28.3-57.3 31-26.1 1.9-117.8.8-120-1.4-.5-.5 19.1-32.6 52.4-85.9l2.3-3.7h24.3c13.3 0 30.9.5 39.1 1z"/>
</svg>
